<?xml version="1.0" encoding="UTF-8" standalone="no"?>
<!DOCTYPE svg PUBLIC "-//W3C//DTD SVG 1.1//EN" "http://www.w3.org/Graphics/SVG/1.1/DTD/svg11.dtd">
<svg width="100%" height="100%" viewBox="0 0 128 128" version="1.1" xmlns="http://www.w3.org/2000/svg" xmlns:xlink="http://www.w3.org/1999/xlink" xml:space="preserve" xmlns:serif="http://www.serif.com/" style="fill-rule:evenodd;clip-rule:evenodd;stroke-linejoin:round;stroke-miterlimit:2;">
    <path d="M81.504,9.465C82.477,10.672 82.973,12.301 83.961,15.555L105.617,86.691C97.483,82.469 88.753,79.514 79.727,77.926L65.629,30.28C65.401,29.501 64.682,28.961 63.87,28.961C63.056,28.961 62.335,29.503 62.109,30.284L48.18,77.902C39.115,79.483 30.346,82.443 22.177,86.68L43.935,15.54C44.931,12.29 45.427,10.664 46.399,9.457C47.258,8.395 48.375,7.569 49.642,7.059C51.075,6.484 52.778,6.484 56.177,6.484L71.72,6.484C75.122,6.484 76.825,6.484 78.263,7.063C79.531,7.573 80.648,8.4 81.505,9.465L81.504,9.465Z" style="fill:white;fill-rule:nonzero;"/>
    <path d="M84.094,90.074C80.524,93.129 73.398,95.211 65.191,95.211C55.121,95.211 46.676,92.074 44.437,87.855C43.637,90.273 43.457,93.039 43.457,94.809C43.457,94.809 42.93,103.484 48.965,109.519C48.965,106.408 51.525,103.848 54.636,103.848C54.636,103.848 54.637,103.848 54.637,103.848C60.007,103.848 60.004,108.531 60,112.336L60,112.672C60,118.445 63.527,123.391 68.543,125.477C67.77,123.889 67.369,122.145 67.371,120.379C67.371,114.871 70.601,112.824 74.359,110.441C77.348,108.547 80.668,106.441 82.953,102.219C84.186,99.944 84.831,97.397 84.828,94.809C84.829,93.202 84.582,91.605 84.094,90.074Z" style="fill:rgb(255,93,1);fill-rule:nonzero;"/>
    <path d="M84.094,90.074C80.524,93.129 73.398,95.211 65.191,95.211C55.121,95.211 46.676,92.074 44.437,87.855C43.637,90.273 43.457,93.039 43.457,94.809C43.457,94.809 42.93,103.484 48.965,109.519C48.965,106.408 51.525,103.848 54.636,103.848C54.636,103.848 54.637,103.848 54.637,103.848C60.007,103.848 60.004,108.531 60,112.336L60,112.672C60,118.445 63.527,123.391 68.543,125.477C67.77,123.889 67.369,122.145 67.371,120.379C67.371,114.871 70.601,112.824 74.359,110.441C77.348,108.547 80.668,106.441 82.953,102.219C84.186,99.944 84.831,97.397 84.828,94.809C84.829,93.202 84.582,91.605 84.094,90.074Z" style="fill:url(#_Linear1);fill-rule:nonzero;"/>
    <defs>
        <linearGradient id="_Linear1" x1="0" y1="0" x2="1" y2="0" gradientUnits="userSpaceOnUse" gradientTransform="matrix(-21.1354,44.246,-44.246,-21.1354,100.168,65.245)"><stop offset="0" style="stop-color:rgb(255,22,57);stop-opacity:1"/><stop offset="1" style="stop-color:rgb(255,22,57);stop-opacity:0"/></linearGradient>
    </defs>
</svg>
