<?xml version="1.0" encoding="UTF-8" standalone="no"?>
<!DOCTYPE svg PUBLIC "-//W3C//DTD SVG 1.1//EN" "http://www.w3.org/Graphics/SVG/1.1/DTD/svg11.dtd">
<svg width="100%" height="100%" viewBox="0 0 15 15" version="1.1" xmlns="http://www.w3.org/2000/svg" xmlns:xlink="http://www.w3.org/1999/xlink" xml:space="preserve" xmlns:serif="http://www.serif.com/" style="fill-rule:evenodd;clip-rule:evenodd;stroke-linejoin:round;stroke-miterlimit:2;">
    <path d="M0,7.5C0,3.358 3.358,0 7.5,0C11.642,0 15,3.358 15,7.5C15,10.087 13.69,12.368 11.698,13.716L4.907,4.209C4.781,4.033 4.554,3.958 4.347,4.024C4.14,4.09 4,4.283 4,4.5L4,12L5,12L5,6.06L10.83,14.222C9.827,14.72 8.696,15 7.5,15C3.358,15 0,11.642 0,7.5ZM10,10L10,4L11,4L11,10L10,10Z" style="fill:white;"/>
</svg>
